<?xml version="1.0" encoding="UTF-8"?>
<svg width="48" height="48" viewBox="0 0 24 24" xmlns="http://www.w3.org/2000/svg">
  <style id="current-color-scheme" type="text/css">.ColorScheme-Text { color:#363636; } .ColorScheme-Background { color:#eff0f1; } .ColorScheme-Highlight { color:#5657f5; } .ColorScheme-PositiveText { color:#27ae60; } .ColorScheme-NeutralText { color:#f67400; } .ColorScheme-NegativeText { color:#da4453; }</style>
  <g class="ColorScheme-Text" fill="none" stroke="currentColor" stroke-width="2" stroke-linecap="round" stroke-linejoin="round">
    <path d="M6 22a2 2 0 0 1-2-2V4a2 2 0 0 1 2-2h8a2.4 2.4 0 0 1 1.704.706l3.588 3.588A2.4 2.4 0 0 1 20 8v12a2 2 0 0 1-2 2z" />
  <path d="M14 2v5a1 1 0 0 0 1 1h5" />
  <path d="M10 9H8" />
  <path d="M16 13H8" />
  <path d="M16 17H8" />
  </g>
</svg>
